<mxfile host="Electron" agent="Mozilla/5.0 (Macintosh; Intel Mac OS X 10_15_7) AppleWebKit/537.36 (KHTML, like Gecko) draw.io/26.2.2 Chrome/134.0.6998.178 Electron/35.1.2 Safari/537.36" version="26.2.2">
  <diagram name="Page-1" id="U25PvnacgFvYka0ERLxm">
    <mxGraphModel dx="1108" dy="1158" grid="1" gridSize="10" guides="1" tooltips="1" connect="1" arrows="1" fold="1" page="1" pageScale="1" pageWidth="827" pageHeight="1169" math="0" shadow="0">
      <root>
        <mxCell id="0" />
        <mxCell id="1" parent="0" />
        <mxCell id="rXdXTOZbMyKa8fCxfcwq-8" value="read buffer&amp;nbsp;&lt;div&gt;instruction loaded&lt;/div&gt;" style="edgeStyle=orthogonalEdgeStyle;rounded=0;orthogonalLoop=1;jettySize=auto;html=1;entryX=0.5;entryY=0;entryDx=0;entryDy=0;" edge="1" parent="1" source="rXdXTOZbMyKa8fCxfcwq-1" target="rXdXTOZbMyKa8fCxfcwq-2">
          <mxGeometry x="0.3158" y="-15" relative="1" as="geometry">
            <mxPoint as="offset" />
          </mxGeometry>
        </mxCell>
        <mxCell id="rXdXTOZbMyKa8fCxfcwq-9" value="dma instruction&amp;nbsp;&lt;div&gt;loaded&lt;/div&gt;" style="edgeStyle=orthogonalEdgeStyle;rounded=0;orthogonalLoop=1;jettySize=auto;html=1;entryX=0.5;entryY=0;entryDx=0;entryDy=0;" edge="1" parent="1" source="rXdXTOZbMyKa8fCxfcwq-1" target="rXdXTOZbMyKa8fCxfcwq-4">
          <mxGeometry x="0.4211" y="15" relative="1" as="geometry">
            <mxPoint as="offset" />
          </mxGeometry>
        </mxCell>
        <mxCell id="rXdXTOZbMyKa8fCxfcwq-1" value="IDLE" style="rounded=1;whiteSpace=wrap;html=1;" vertex="1" parent="1">
          <mxGeometry x="300" y="90" width="120" height="60" as="geometry" />
        </mxCell>
        <mxCell id="rXdXTOZbMyKa8fCxfcwq-10" style="edgeStyle=orthogonalEdgeStyle;rounded=0;orthogonalLoop=1;jettySize=auto;html=1;entryX=0.5;entryY=0;entryDx=0;entryDy=0;" edge="1" parent="1" source="rXdXTOZbMyKa8fCxfcwq-2" target="rXdXTOZbMyKa8fCxfcwq-3">
          <mxGeometry relative="1" as="geometry" />
        </mxCell>
        <mxCell id="rXdXTOZbMyKa8fCxfcwq-2" value="ASK_BUFFER" style="rounded=1;whiteSpace=wrap;html=1;" vertex="1" parent="1">
          <mxGeometry x="180" y="220" width="120" height="60" as="geometry" />
        </mxCell>
        <mxCell id="rXdXTOZbMyKa8fCxfcwq-11" style="edgeStyle=orthogonalEdgeStyle;rounded=0;orthogonalLoop=1;jettySize=auto;html=1;entryX=0;entryY=0.5;entryDx=0;entryDy=0;" edge="1" parent="1" source="rXdXTOZbMyKa8fCxfcwq-3" target="rXdXTOZbMyKa8fCxfcwq-1">
          <mxGeometry relative="1" as="geometry">
            <Array as="points">
              <mxPoint x="120" y="390" />
              <mxPoint x="120" y="120" />
            </Array>
          </mxGeometry>
        </mxCell>
        <mxCell id="rXdXTOZbMyKa8fCxfcwq-3" value="READ_BUFFER" style="rounded=1;whiteSpace=wrap;html=1;" vertex="1" parent="1">
          <mxGeometry x="180" y="360" width="120" height="60" as="geometry" />
        </mxCell>
        <mxCell id="rXdXTOZbMyKa8fCxfcwq-12" style="edgeStyle=orthogonalEdgeStyle;rounded=0;orthogonalLoop=1;jettySize=auto;html=1;" edge="1" parent="1" source="rXdXTOZbMyKa8fCxfcwq-4" target="rXdXTOZbMyKa8fCxfcwq-5">
          <mxGeometry relative="1" as="geometry" />
        </mxCell>
        <mxCell id="rXdXTOZbMyKa8fCxfcwq-4" value="WAIT_FOR_DMA" style="rounded=1;whiteSpace=wrap;html=1;" vertex="1" parent="1">
          <mxGeometry x="420" y="220" width="120" height="60" as="geometry" />
        </mxCell>
        <mxCell id="rXdXTOZbMyKa8fCxfcwq-13" style="edgeStyle=orthogonalEdgeStyle;rounded=0;orthogonalLoop=1;jettySize=auto;html=1;" edge="1" parent="1" source="rXdXTOZbMyKa8fCxfcwq-5" target="rXdXTOZbMyKa8fCxfcwq-6">
          <mxGeometry relative="1" as="geometry" />
        </mxCell>
        <mxCell id="rXdXTOZbMyKa8fCxfcwq-5" value="SWITCH_BUFFER" style="rounded=1;whiteSpace=wrap;html=1;" vertex="1" parent="1">
          <mxGeometry x="420" y="310" width="120" height="60" as="geometry" />
        </mxCell>
        <mxCell id="rXdXTOZbMyKa8fCxfcwq-14" style="edgeStyle=orthogonalEdgeStyle;rounded=0;orthogonalLoop=1;jettySize=auto;html=1;" edge="1" parent="1" source="rXdXTOZbMyKa8fCxfcwq-6" target="rXdXTOZbMyKa8fCxfcwq-7">
          <mxGeometry relative="1" as="geometry" />
        </mxCell>
        <mxCell id="rXdXTOZbMyKa8fCxfcwq-6" value="LAUNCH_DMA" style="rounded=1;whiteSpace=wrap;html=1;" vertex="1" parent="1">
          <mxGeometry x="420" y="400" width="120" height="60" as="geometry" />
        </mxCell>
        <mxCell id="rXdXTOZbMyKa8fCxfcwq-15" style="edgeStyle=orthogonalEdgeStyle;rounded=0;orthogonalLoop=1;jettySize=auto;html=1;entryX=1;entryY=0.5;entryDx=0;entryDy=0;" edge="1" parent="1" source="rXdXTOZbMyKa8fCxfcwq-7" target="rXdXTOZbMyKa8fCxfcwq-1">
          <mxGeometry relative="1" as="geometry">
            <Array as="points">
              <mxPoint x="580" y="520" />
              <mxPoint x="580" y="120" />
            </Array>
          </mxGeometry>
        </mxCell>
        <mxCell id="rXdXTOZbMyKa8fCxfcwq-7" value="END_INSTRUCTION" style="rounded=1;whiteSpace=wrap;html=1;" vertex="1" parent="1">
          <mxGeometry x="420" y="490" width="120" height="60" as="geometry" />
        </mxCell>
        <mxCell id="rXdXTOZbMyKa8fCxfcwq-17" value="DMA bus&lt;span style=&quot;background-color: light-dark(#ffffff, var(--ge-dark-color, #121212)); color: light-dark(rgb(0, 0, 0), rgb(255, 255, 255));&quot;&gt;y = 1&lt;/span&gt;" style="edgeStyle=orthogonalEdgeStyle;rounded=0;orthogonalLoop=1;jettySize=auto;html=1;exitX=0;exitY=0.75;exitDx=0;exitDy=0;entryX=0;entryY=0.25;entryDx=0;entryDy=0;" edge="1" parent="1" source="rXdXTOZbMyKa8fCxfcwq-4" target="rXdXTOZbMyKa8fCxfcwq-4">
          <mxGeometry x="-0.2308" y="-15" relative="1" as="geometry">
            <Array as="points">
              <mxPoint x="370" y="265" />
              <mxPoint x="370" y="235" />
            </Array>
            <mxPoint x="-15" y="15" as="offset" />
          </mxGeometry>
        </mxCell>
      </root>
    </mxGraphModel>
  </diagram>
</mxfile>
